<svg xmlns="http://www.w3.org/2000/svg" width="100%" height="100%" viewBox="0 0 97.403 97.403">
  <path id="Icon" fill="currentColor" d="M70.129,63.783a5.479,5.479,0,0,0,7.218,1.765,5.186,5.186,0,0,0,2.048-6.992l.027.044L72.3,46.261c-.876-1.477-1.084-1.875-1.084-1.875a3.542,3.542,0,0,1,1.322-4.776l.066-.035a3.349,3.349,0,0,1,4.653,1.3L90.274,63.42a1.2,1.2,0,0,0,1.446.314l.066-.044a.939.939,0,0,0,.336-1.256L77.886,37.778c-.827-1.415-2-3.454-2-3.463a3.348,3.348,0,0,1-.4-2.6A3.465,3.465,0,0,1,77.117,29.6l.062-.04a3.747,3.747,0,0,1,1.742-.456,2.949,2.949,0,0,1,2.826,1.729l-.084-.124L94.75,53.368a.878.878,0,0,0,1.212.327l.066-.04a.919.919,0,0,0,.283-1.26L87.643,37.363l-.018-.049A7.667,7.667,0,0,1,94.719,26.47a7.917,7.917,0,0,1,6.722,3.8l1.924,3.366a2.264,2.264,0,0,0,3.083.827,2.315,2.315,0,0,0,1.039-2.928C101.1,14.162,85.06,2.96,65.419,2.628c-.557-.009-1.114-.009-1.658,0a46.076,46.076,0,0,0-45.176,45.3,47.728,47.728,0,0,0,1.092,10.853,1.32,1.32,0,0,1-.659,1.7l-.1.044a1.3,1.3,0,0,1-1.689-.677v-.009a52.716,52.716,0,0,1-1.274-11.954A48.765,48.765,0,0,1,63.765.01c.562-.013,1.128-.013,1.7,0,20.658.345,37.8,12.8,44.539,31.1a4.889,4.889,0,0,1-2.251,5.625,4.837,4.837,0,0,1-2.432.655,5.079,5.079,0,0,1-4.414-2.344l-1.822-3.167-.195-.349a5,5,0,0,0-6.731-1.676,5.248,5.248,0,0,0-2.3,6.284c4.551,7.912,8.611,14.917,8.611,14.917A3.367,3.367,0,0,1,97.3,55.9l-.071.044a3.54,3.54,0,0,1-1.738.456,3.284,3.284,0,0,1-2.844-1.76S83.3,38.3,79.594,32.029a.489.489,0,0,1-.049-.071.737.737,0,0,0-1.092-.155l-.071.031a.943.943,0,0,0-.318,1.274L93.37,59.621c.584.973.911,1.579.911,1.579a3.355,3.355,0,0,1-1.154,4.688l-.062.044a3.591,3.591,0,0,1-1.742.464,3.708,3.708,0,0,1-3.18-1.654c-10.22-17.774-9.526-16.629-13.046-22.6a.9.9,0,0,0-1.234-.332l-.057.031a1.006,1.006,0,0,0-.451,1.278c4.86,8.438,6.355,10.844,8.35,14.484a7.583,7.583,0,0,1,.6,5.705,7.853,7.853,0,0,1-14.033,2.366l.013.018L55.553,43.647,47.371,29.495a.837.837,0,0,0-1.181-.341l-.057.04a1,1,0,0,0-.234,1.318L62.191,58.7l-.018-.027c1.813,3.162,3.038,5.3,3.038,5.3a3.376,3.376,0,0,1-1.3,4.586l-.066.04a3.379,3.379,0,0,1-4.577-1.3C44.488,41.652,44.284,41.365,42.449,38.154l.027.031a.857.857,0,0,0-1.172-.336l-.066.04a.984.984,0,0,0-.363,1.278l1.137,1.986S55.217,64.021,55.217,64.03a3.377,3.377,0,0,1-1.309,4.586l-.066.031a3.364,3.364,0,0,1-4.577-1.287L36.8,45.748a.331.331,0,0,0-.5.044l.031-.044-.111.172L30.694,56.039a.326.326,0,0,0-.013.318.365.365,0,0,0,.265.155l1.818-.009,2.247-.018.349.009h0a3.027,3.027,0,0,1,.9.168,3.308,3.308,0,0,1,1.331.907,3.2,3.2,0,0,1,.407.522l.049.1a3.179,3.179,0,0,1,.447,1.614v.075A3.778,3.778,0,0,1,34.842,63.3h-.19c-.5.009-1.238.022-1.9.009l-5.51.013a1.46,1.46,0,0,0-1.185.809c-.009.018-1.627,2.786-1.627,2.786a3.362,3.362,0,0,0-.659,2.211,12.013,12.013,0,0,0,.619,1.477C30.8,82.959,44.589,93.98,63.779,94.776H65.53A46.168,46.168,0,0,0,110.317,42.51a3.552,3.552,0,0,1-.071-.416,1.274,1.274,0,0,1,.933-1.495l.1-.027a1.249,1.249,0,0,1,1.5.938,53.144,53.144,0,0,1,.566,8A48.762,48.762,0,0,1,65.53,97.394c-.562.009-1.128.009-1.694.009a.584.584,0,0,0-.124-.009C45.288,96.62,29.1,86.267,21.495,70.615a4.367,4.367,0,0,1-.433-1.968,4.428,4.428,0,0,1,.274-1.428A54.439,54.439,0,0,1,24.48,61.9l.04-.066c.376-.571.787-1.088,1.5-1.088l9.248-.009a.829.829,0,0,0,.814-.84v-.066a.841.841,0,0,0-.831-.84l-6.063.018-1.636-.013H27.31a.761.761,0,0,1-.632-1.172c.159-.27.323-.531.491-.8l-.128.2c4.6-7.394,6.382-11.308,8.611-15.041a1.335,1.335,0,0,1,.438-.46,1.18,1.18,0,0,1,1.658.553c.124.212.371.646.5.858L51.471,66.122a.867.867,0,0,0,1.172.332l.066-.031a.872.872,0,0,0,.332-1.176c-3.591-6.258-14.4-24.934-14.4-24.943a3.426,3.426,0,0,1-.208-2.6,3.384,3.384,0,0,1,1.605-2.026l.057-.04a3.526,3.526,0,0,1,1.7-.42,3.309,3.309,0,0,1,2.839,1.694c8.942,15.589,8.646,14.9,12.847,22.228l3.98,6.921a.886.886,0,0,0,1.185.336l.057-.044a.854.854,0,0,0,.341-1.172L43.86,31.945c-.119-.2-.172-.3-.172-.3a3.563,3.563,0,0,1-.181-2.676,3.358,3.358,0,0,1,1.6-2.03l.057-.035a3.473,3.473,0,0,1,1.694-.42,3.407,3.407,0,0,1,2.892,1.72s1.712,2.91,3.321,6L70.134,63.765Z" transform="translate(-15.949)"></path>
</svg>
