<svg xmlns="http://www.w3.org/2000/svg" width="100%" height="100%" viewBox="0 0 150 40.909">
  <g id="Group_812" data-name="Group 812" transform="translate(0 -112.987)">
    <path id="Path" fill="currentColor" d="M2.849,8.969A1.415,1.415,0,0,0,4.443,7.493c0-1.157-1.045-1.676-2.03-2.166C.566,4.394.017,3.48.017,2.4A2.436,2.436,0,0,1,2.57,0,2.729,2.729,0,0,1,4.53.809L4.809.1h.449V2.656h-.6A2.054,2.054,0,0,0,2.592.766c-1.071,0-1.533.49-1.533,1.357,0,.995,1.071,1.395,2.152,2.019C4.8,5,5.593,5.856,5.593,6.989A2.668,2.668,0,0,1,2.822,9.74,3.035,3.035,0,0,1,.679,8.888l-.279.7H0V6.908l.645-.014C.915,8.331,1.385,8.969,2.849,8.969Z" transform="translate(37.013 144.156)"></path>
    <path id="Path-2" fill="currentColor" data-name="Path" d="M8.084,9.053v.533L6.537,9.562l-1.616.024V9.053l.95-.148V.746L4.908.627,4.921.07,6.516.108,8.071.07V.627L7.147.746V8.882Z" transform="translate(40.498 144.205)"></path>
    <path id="Path-3" fill="currentColor" data-name="Path" d="M14.6.6V.067L16.015.1,17.509.067V.6l-.875.148s-.109,1.366-.109,3.161V9.56H15.6L10.227,2.142V5.48c0,2.3.083,3.4.083,3.4l1,.171v.533L9.991,9.564,8.4,9.588V9.055l.984-.148s.083-1.009.083-3.432v-4.2C9.464.543,8.907.7,8.393.624L8.406.067,10.414.1l5.362,7.6V3.88c0-1.795-.083-3.113-.083-3.113L14.6.6Z" transform="translate(42.972 144.203)"></path>
    <path id="Path-4" fill="currentColor" data-name="Path" d="M19.223,8.864a2.482,2.482,0,0,0,2.592-1.833h.353V9.6h-.488l-.144-.838A3.21,3.21,0,0,1,19.2,9.7c-1.7,0-4.173-1.447-4.173-4.851S17.5,0,19.2,0a3.56,3.56,0,0,1,2.335.809l.144-.7h.488V2.537h-.353A2.478,2.478,0,0,0,19.223.847c-1.642,0-2.7,1.609-2.7,3.989s1.058,4.027,2.7,4.027Z" transform="translate(47.682 144.156)"></path>
    <path id="Path-5" fill="currentColor" data-name="Path" d="M26.973.067l-.026,2.485H26.4l-.035-.238A1.782,1.782,0,0,0,24.647.838H22.578v3.59h.536c.889.014,1.546-.214,1.546-.919V3.242h.379V6.327H24.66V6.06c0-.69-.671-.9-1.555-.89h-.523V8.8h2.47a2.327,2.327,0,0,0,2.056-1.409l.048-.238.536.029-.314,2.38h-5.4l-1.629.024V9.05L21.31,8.9V.743L20.339.624l.013-.557h6.62Z" transform="translate(51.453 144.203)"></path>
    <path id="Path-6" fill="currentColor" data-name="Path" d="M32.828,9.024V9.6l-1.9-.024L29.1,9.6V9.024l1.254-.148v-7.1H29.091l.013-.757A2.134,2.134,0,0,0,30.942.079L31.587.05v8.8l1.241.171Z" transform="translate(57.667 144.191)"></path>
    <path id="Shape" fill="currentColor" d="M32.759,8.327c-.122-.238-.122-1.171.536-1.171.462,0,.61.333.61.7a.968.968,0,0,1-.279.666,1.825,1.825,0,0,0,1.189.357c1.52,0,2.078-2.019,2.213-3.732l-.34-.052a1.912,1.912,0,0,1-1.812.957,2.694,2.694,0,0,1-2.6-2.98A3.086,3.086,0,0,1,35.329.006c2.261,0,3.088,2.39,3.088,4.189,0,3.656-1.581,5.475-3.371,5.475a2.347,2.347,0,0,1-2.287-1.328h.013l-.013-.014Zm.854-5.17c0,1.143.44,1.966,1.52,1.966a1.9,1.9,0,0,0,1.934-1.342c-.048-1.366-.379-2.975-1.9-2.975C33.987.805,33.612,1.791,33.612,3.157Z" transform="translate(59.927 144.16)"></path>
    <path id="Path-7" fill="currentColor" data-name="Path" d="M39.431,9.64c-.414,0-.671-.2-.671-.609a13.341,13.341,0,0,1,2.626-7.512l-.026-.371H38.015a.758.758,0,0,0-.841.49l-.414-.014.2-1.557h5.423V.733a13.549,13.549,0,0,0-2.361,8.293.541.541,0,0,1-.61.609Z" transform="translate(63.112 144.203)"></path>
    <path id="Shape-2" fill="currentColor" data-name="Shape" d="M41.318,8.327c-.122-.238-.122-1.171.536-1.171.462,0,.61.333.61.7a.968.968,0,0,1-.279.666,1.83,1.83,0,0,0,1.193.357c1.52,0,2.078-2.019,2.213-3.732l-.34-.052a1.912,1.912,0,0,1-1.812.957,2.694,2.694,0,0,1-2.6-2.98A3.086,3.086,0,0,1,43.892.006c2.261,0,3.088,2.39,3.088,4.189,0,3.656-1.581,5.475-3.371,5.475a2.347,2.347,0,0,1-2.287-1.328h.013l-.013-.014Zm.854-5.17c0,1.143.44,1.966,1.52,1.966a1.9,1.9,0,0,0,1.934-1.342c-.048-1.366-.379-2.975-1.9-2.975C42.546.805,42.172,1.791,42.172,3.157Z" transform="translate(66.007 144.16)"></path>
  </g>
  <g id="Group_813" data-name="Group 813" transform="translate(0 -112.987)">
    <path id="Shape-3" fill="currentColor" data-name="Shape" d="M2.113,21.332s1.407-2.839,2.814-6.689L10.241.293h2.017L20.222,21.2l2.24.41v1.262L18.4,22.81l-4.13.065V21.613l2.464-.346-1.824-4.952H6.365c-1.214,3.185-1.92,4.952-1.92,4.952l2.429.346v1.262L3.165,22.81,0,22.875V21.613l2.113-.285Zm4.9-6.719h7.264L10.6,4.618Z" transform="translate(0 113.195)"></path>
    <path id="Path-8" fill="currentColor" data-name="Path" d="M15.974,2.774l-2.144-.726L13.9.38,19.144,0V21.666l2.5.38-.035,1.072-4.033-.1-3.967.1-.1-1.072,2.464-.315Z" transform="translate(9.592 112.987)"></path>
    <path id="Shape-4" fill="currentColor" data-name="Shape" d="M21.841,9.595,19.7,8.869,19.764,7.2l5.217-.38.031,14.57,2.657.38-.031,1.072-4.191-.1-4.13.1-.1-1.072,2.626-.315V9.59ZM23.314.387c1.184,0,1.92.566,1.92,1.607s-.736,1.672-1.92,1.672-1.951-.631-1.951-1.672S22.1.387,23.314.387Z" transform="translate(13.645 113.261)"></path>
    <path id="Path-9" fill="currentColor" data-name="Path" d="M56.158,21.418c2.591,0,4.191-1.292,4.191-3.5,0-2.744-2.753-3.975-5.344-5.142-4.862-2.208-6.3-4.386-6.3-6.94C48.7,2.272,52,.129,55.417.129a7.533,7.533,0,0,1,5.151,1.923L61.3.379h1.184V6.433H60.919a5.237,5.237,0,0,0-5.44-4.481c-2.814,0-4.033,1.167-4.033,3.219,0,2.364,2.819,3.31,5.664,4.792,4.191,2.052,6.273,4.07,6.273,6.749,0,4.161-3.489,6.529-7.295,6.529a8.451,8.451,0,0,1-5.629-2.018L49.723,22.9H48.666V16.527l1.7-.03c.706,3.4,1.951,4.922,5.791,4.922Z" transform="translate(34.551 113.079)"></path>
    <path id="Shape-5" fill="currentColor" data-name="Shape" d="M67,4.056a7.947,7.947,0,0,1,8.351,8.2A7.924,7.924,0,0,1,67,20.428a7.9,7.9,0,0,1-8.32-8.171A7.937,7.937,0,0,1,67,4.056ZM67,18.6c3.617,0,4.927-2.964,4.927-6.343S70.617,5.914,67,5.914s-4.862,2.964-4.862,6.339S63.419,18.6,67,18.6Z" transform="translate(41.66 115.866)"></path>
    <path id="Path-10" fill="currentColor" data-name="Path" d="M71.566,6.99l-2.174-.726.066-1.672,5.247-.38V7.176h1.026a4.934,4.934,0,0,1,4.734-3.12c2.845,0,4.993,1.547,4.993,5.107v9.619l2.464.38-.031,1.072-3.967-.1-3.81.1-.066-1.072,2.271-.315V9.068c0-1.7-.833-2.649-2.814-2.649a4.885,4.885,0,0,0-4.8,4.606v7.761l2.5.38-.031,1.072-4.064-.1-3.937.1-.066-1.072,2.464-.315V6.99Z" transform="translate(49.063 115.866)"></path>
    <path id="Path-11" fill="currentColor" data-name="Path" d="M87.274,19.044a2.148,2.148,0,0,0,2.367-2.3c0-1.7-2.433-2.774-4.033-3.565-3.52-1.672-4.577-3.09-4.577-4.952,0-2.679,2.494-4.131,5.313-4.131a6.132,6.132,0,0,1,4.16,1.737l.32-1.482h1.184V8.985h-.991a4.967,4.967,0,0,0-4.927-3.53,1.9,1.9,0,0,0-2.179,2.113c0,1.547,2.179,2.338,4.094,3.185,3.169,1.387,4.511,3.029,4.511,5.017,0,3.124-2.464,4.7-5.344,4.7a7.131,7.131,0,0,1-4.831-2.083l-.351,1.733H80.966V15.138l.991-.03a5.214,5.214,0,0,0,5.309,3.941Z" transform="translate(57.483 115.893)"></path>
    <path id="Shape-6" fill="currentColor" data-name="Shape" d="M13.612,4.546c0,.16-.136-.147-.228-.056a.71.71,0,0,1-.587-.268C12.012,2.545,10.311.834,8.312.834A2.6,2.6,0,0,0,5.594,3.448c0,2.161,4.844,7.259,11.915,13.711a4.771,4.771,0,0,0,.951-3.418c0-3.772-2.727-2.692-2.727-2.692s.14-1.115.4-1.115c1.21,0,2.358.13,2.849.13.263,0,3.546,1.037,2.424,1.158-.32.035-1.219.147-1.28.683a15.023,15.023,0,0,1-1.539,5.933c1.245.968,4.318,4.1,5.791,4.1a8.327,8.327,0,0,0,1.21-.16.251.251,0,0,1,.263.259c0,.549-1.635,1.033-2.718,1.033-2.455,0-4.257-1.836-6.054-3.258a11.267,11.267,0,0,1-8.049,3.258C4.226,23.066,0,19.937,0,14.9c0-3.452,1.736-6.1,5.239-6.84A5.958,5.958,0,0,1,3.731,4.386C3.731,1.452,6.383,0,9.035,0c2.091,0,4.257,1.668,4.257,1.957l.324,2.593ZM16,19.095C9,13.192,6.51,8.867,5.335,8.867c-2.065,0-3.568,2.515-3.568,4.386,0,4.291,4.156,7.9,8.377,7.9A9.172,9.172,0,0,0,16,19.09Z" transform="translate(49.563 113.238)"></path>
    <path id="Path-12" fill="currentColor" data-name="Path" d="M11.6,7.778,13.336,7.7l.864-.428,2.622-.285V5.665l-3.647.06-3.967-.06L9.145,7.018l1.951.125Z" transform="translate(56.055 117.26)"></path>
    <path id="Path-13" fill="currentColor" data-name="Path" d="M7.517,4.105a7.545,7.545,0,0,1,.723,2.113H9.933V.164H8.749L8.013,1.836a5.265,5.265,0,0,0-.583-.488Z" transform="translate(54.838 113.354)"></path>
  </g>
</svg>
